#!OML:ASF F:\VICON\USERDATA\INSTALL\rory3\rory3.ASF
:FULLY-SPECIFIED
:DEGREES
362
root 10.5405 17.8075 12.9325 236.779 83.9298 238.63
lowerback 12.104 2.86944 4.86264
upperback 0.880256 4.59913 1.15324
thorax -5.56856 2.18068 -2.2787
lowerneck -18.8909 -5.96729 -11.5849
upperneck 31.7262 -6.33769 6.88461
head 14.8091 -2.90807 3.74777
rclavicle -6.28688e-014 -1.06847e-014
rhumerus -26.6863 -8.11588 -82.4534
rradius 33.1494
rwrist 3.21492
rhand -14.6795 9.20553
rfingers 7.12502
rthumb 11.4738 -20.4605
lclavicle -6.28688e-014 -1.06847e-014
lhumerus -39.5324 9.81777 77.6752
lradius 29.6346
lwrist -7.09227
lhand -20.0152 27.0474
lfingers 7.12502
lthumb 6.32517 56.933
rfemur 6.17095 1.30634 29.8857
rtibia 18.1179
rfoot -16.6659 -2.86449
rtoes -1.51368
lfemur -24.647 -4.11017 -13.5498
ltibia 21.1155
lfoot -6.36404 7.87602
ltoes 0.418493
363
root 10.6793 17.7876 12.9164 235.263 83.7599 237.074
lowerback 12.1186 2.81937 4.93803
upperback 0.837268 4.54477 1.14814
thorax -5.61985 2.14951 -2.32005
lowerneck -18.9978 -5.94538 -11.6488
upperneck 31.8203 -6.29196 6.9501
head 14.8766 -2.88529 3.79824
rclavicle -4.81432e-014 6.4605e-015
rhumerus -26.4538 -7.72518 -82.5676
rradius 33.3562
rwrist 3.11603
rhand -14.8052 9.15415
rfingers 7.12502
rthumb 11.3526 -20.5186
lclavicle -4.81432e-014 6.4605e-015
lhumerus -39.7172 10.091 77.4963
lradius 29.4555
lwrist -7.28973
lhand -19.5321 26.941
lfingers 7.12502
lthumb 6.79155 56.8121
rfemur 6.83501 1.28636 29.9725
rtibia 17.7911
rfoot -16.7735 -3.13191
rtoes -1.91255
lfemur -24.8011 -4.99692 -13.25
ltibia 19.5886
lfoot -6.5837 7.69831
ltoes -0.106138
364
root 10.8259 17.7736 12.9002 234.905 83.7482 236.713
lowerback 12.0489 2.85577 4.95024
upperback 0.855172 4.58886 1.13667
thorax -5.55696 2.1731 -2.3404
lowerneck -19.0402 -5.96044 -11.7052
upperneck 31.7531 -6.29084 6.94769
head 14.8579 -2.8926 3.80366
rclavicle -4.21113e-014 7.05686e-015
rhumerus -26.2143 -7.40619 -82.6323
rradius 33.574
rwrist 2.91088
rhand -15.1068 9.10121
rfingers 7.12502
rthumb 11.0617 -20.5873
lclavicle -4.21113e-014 7.05686e-015
lhumerus -39.8182 10.5679 77.3132
lradius 29.199
lwrist -7.58986
lhand -19.105 26.7805
lfingers 7.12502
lthumb 7.20384 56.6379
rfemur 7.49727 1.25603 29.9491
rtibia 17.5694
rfoot -16.9708 -3.15347
rtoes -2.04871
lfemur -24.7954 -5.39045 -13.135
ltibia 18.2404
lfoot -6.86307 7.22444
ltoes -1.2038
365
root 10.9742 17.7622 12.8829 236.175 83.8623 237.982
lowerback 11.9782 2.94295 4.91008
upperback 0.868438 4.69289 1.12416
thorax -5.49804 2.22702 -2.34185
lowerneck -19.1125 -5.95466 -11.6115
upperneck 31.7491 -6.26746 6.82818
head 14.8598 -2.88729 3.73992
rclavicle 2.07419e-014 3.8763e-015
rhumerus -25.9757 -7.3076 -82.6948
rradius 33.7752
rwrist 2.72623
rhand -15.4628 9.05866
rfingers 7.12502
rthumb 10.7184 -20.6479
lclavicle 2.07419e-014 3.8763e-015
lhumerus -39.9116 10.8525 77.2304
lradius 28.922
lwrist -7.74242
lhand -19.2992 26.7669
lfingers 7.12502
lthumb 7.01631 56.6307
rfemur 8.12941 1.30639 29.8891
rtibia 17.416
rfoot -17.1725 -3.05559
rtoes -2.45712
lfemur -24.7418 -6.06405 -12.8746
ltibia 17.1009
lfoot -7.30185 7.25438
ltoes -1.96192
366
root 11.1218 17.7433 12.8623 237.178 84.1131 238.886
lowerback 11.8714 3.03734 4.71949
upperback 0.810711 4.78068 1.05203
thorax -5.50216 2.27159 -2.31975
lowerneck -19.1997 -5.88116 -11.4917
upperneck 31.8212 -6.16639 6.75856
head 14.891 -2.83747 3.71126
rclavicle 8.65831e-014 2.03754e-014
rhumerus -25.8063 -7.21319 -82.7844
rradius 33.9759
rwrist 2.82513
rhand -15.9006 9.02323
rfingers 7.12502
rthumb 10.296 -20.7048
lclavicle 8.65831e-014 2.03754e-014
lhumerus -40.1128 10.9453 77.1088
lradius 28.7059
lwrist -7.95389
lhand -19.1474 26.7574
lfingers 7.12502
lthumb 7.16285 56.6162
rfemur 8.65817 1.50906 29.717
rtibia 17.3023
rfoot -17.2745 -3.20407
rtoes -2.79375
lfemur -24.7993 -6.23652 -12.9194
ltibia 16.1944
lfoot -7.58317 7.04314
ltoes -4.57447
367
root 11.2696 17.7238 12.8382 238.16 84.2776 239.708
lowerback 11.6676 3.1251 4.66934
upperback 0.75592 4.87224 0.969173
thorax -5.43659 2.31691 -2.38011
lowerneck -19.1774 -5.84904 -11.5573
upperneck 31.7356 -6.14994 6.90317
head 14.853 -2.81922 3.78432
rclavicle -2.03879e-014 1.39149e-015
rhumerus -25.6516 -7.35423 -82.8037
rradius 34.1808
rwrist 3.24137
rhand -16.0734 8.84331
rfingers 7.12502
rthumb 10.1293 -20.8929
lclavicle -2.03879e-014 1.39149e-015
lhumerus -40.2718 11.2869 76.8563
lradius 28.4734
lwrist -8.48955
lhand -18.878 26.7409
lfingers 7.12502
lthumb 7.42289 56.5907
rfemur 9.12068 1.62468 29.6119
rtibia 17.1748
rfoot -17.3168 -3.41801
rtoes -3.28276
lfemur -24.8336 -6.2893 -12.9361
ltibia 15.5784
lfoot -8.00105 6.63714
ltoes -5.28474
368
root 11.4147 17.7105 12.8138 238.924 84.3921 240.352
lowerback 11.5607 3.20133 4.67112
upperback 0.701381 4.96133 0.87874
thorax -5.41987 2.35832 -2.48314
lowerneck -19.2196 -5.85551 -11.4852
upperneck 31.7344 -6.18682 6.91675
head 14.8634 -2.82361 3.77015
rclavicle -5.92751e-014 -1.26228e-014
rhumerus -25.4978 -7.27054 -82.8929
rradius 34.3291
rwrist 3.14084
rhand -16.1156 8.81246
rfingers 7.12502
rthumb 10.0886 -20.9257
lclavicle -5.92751e-014 -1.26228e-014
lhumerus -40.3783 11.6307 76.6168
lradius 28.2234
lwrist -8.79023
lhand -18.8498 26.9578
lfingers 7.12502
lthumb 7.45012 56.8066
rfemur 9.57167 1.61231 29.512
rtibia 17.1063
rfoot -17.2779 -3.57103
rtoes -4.46473
lfemur -24.7926 -6.51327 -12.9258
ltibia 15.2411
lfoot -7.96381 6.42748
ltoes -7.13155
369
root 11.5602 17.7018 12.7863 239.506 84.5162 240.882
lowerback 11.5039 3.26142 4.62291
upperback 0.664398 5.02906 0.841007
thorax -5.42293 2.39109 -2.50311
lowerneck -19.3377 -5.81204 -11.3468
upperneck 31.8471 -6.11752 6.80199
head 14.9219 -2.79055 3.71423
rclavicle 2.12141e-014 1.86858e-014
rhumerus -25.3636 -6.96303 -82.9559
rradius 34.4249
rwrist 2.91462
rhand -16.2192 8.96168
rfingers 7.12502
rthumb 9.9887 -20.7813
lclavicle 2.12141e-014 1.86858e-014
lhumerus -40.4853 11.8203 76.5692
lradius 27.9473
lwrist -8.88941
lhand -18.912 27.1216
lfingers 7.12502
lthumb 7.39011 56.9725
rfemur 10.1279 1.79002 29.4267
rtibia 16.9868
rfoot -17.1439 -3.83144
rtoes -5.73848
lfemur -24.684 -5.82135 -13.2526
ltibia 15.2837
lfoot -7.64557 5.19955
ltoes -5.85109
370
root 11.7072 17.6867 12.7578 240.291 84.5425 241.498
lowerback 11.3043 3.27687 4.63331
upperback 0.620738 5.04181 0.874622
thorax -5.35888 2.39852 -2.46297
lowerneck -19.4059 -5.77653 -11.4233
upperneck 31.8458 -6.01875 6.76794
head 14.9269 -2.7627 3.73098
rclavicle -9.93923e-017 1.25731e-014
rhumerus -25.1955 -6.98896 -82.8762
rradius 34.5044
rwrist 3.29595
rhand -15.6942 9.17734
rfingers 7.12502
rthumb 10.4951 -20.5407
lclavicle -9.93923e-017 1.25731e-014
lhumerus -40.5723 11.962 76.6483
lradius 27.6379
lwrist -8.97397
lhand -19.1615 27.0286
lfingers 7.12502
lthumb 7.14926 56.8878
rfemur 10.4635 2.13251 29.4638
rtibia 17.0114
rfoot -17.0056 -4.10175
rtoes -6.33252
lfemur -24.7242 -3.84642 -14.0525
ltibia 15.5038
lfoot -6.79329 3.20836
ltoes -9.26506
371
root 11.8537 17.6792 12.727 241.266 84.4554 242.192
lowerback 10.9986 3.27984 4.79716
upperback 0.537897 5.05194 0.911449
thorax -5.26427 2.40124 -2.49787
lowerneck -19.4326 -5.82428 -11.7371
upperneck 31.8324 -6.03116 6.92965
head 14.9503 -2.78496 3.85066
rclavicle 4.47762e-014 -6.5102e-015
rhumerus -25.0555 -7.38076 -82.715
rradius 34.532
rwrist 4.03626
rhand -14.8445 9.638
rfingers 7.12502
rthumb 11.3147 -20.0368
lclavicle 4.47762e-014 -6.5102e-015
lhumerus -40.6648 12.115 76.6786
lradius 27.3625
lwrist -9.30678
lhand -18.735 27.0325
lfingers 7.12502
lthumb 7.56096 56.8774
rfemur 10.5598 2.32892 29.5513
rtibia 17.2415
rfoot -16.9468 -4.18737
rtoes -6.75154
lfemur -24.7902 -4.89606 -13.6317
ltibia 15.7775
lfoot -6.37352 3.63469
ltoes -3.78199
372
root 12.0016 17.67 12.6984 240.694 84.6772 241.549
lowerback 10.9347 3.33074 4.61783
upperback 0.488794 5.08735 0.81904
thorax -5.28434 2.41951 -2.49715
lowerneck -19.4626 -5.83461 -11.6962
upperneck 31.8374 -6.04574 6.89219
head 14.9578 -2.79106 3.82459
rclavicle 8.55395e-015 -6.80837e-015
rhumerus -24.978 -7.49801 -82.7037
rradius 34.5142
rwrist 4.15017
rhand -14.7022 9.9569
rfingers 7.12502
rthumb 11.4519 -19.7103
lclavicle 8.55395e-015 -6.80837e-015
lhumerus -40.8012 12.3093 76.5538
lradius 27.1685
lwrist -9.71022
lhand -18.0906 27.159
lfingers 7.12502
lthumb 8.18291 56.9805
rfemur 10.8465 2.62845 29.3193
rtibia 17.6596
rfoot -16.9644 -4.26937
rtoes -6.49065
lfemur -24.4891 -4.90044 -14.002
ltibia 16.0994
lfoot -6.0109 3.40526
ltoes -3.60082
